<?xml version="1.0" encoding="UTF-8" standalone="no"?>
<!DOCTYPE svg PUBLIC "-//W3C//DTD SVG 1.1//EN" "http://www.w3.org/Graphics/SVG/1.1/DTD/svg11.dtd">
<svg width="100%" height="100%" viewBox="0 0 296 1359" version="1.1" xmlns="http://www.w3.org/2000/svg" xmlns:xlink="http://www.w3.org/1999/xlink" xml:space="preserve" xmlns:serif="http://www.serif.com/" style="fill-rule:evenodd;clip-rule:evenodd;stroke-linejoin:round;stroke-miterlimit:2;">
    <g transform="matrix(1,0,0,1,-1304,-694)">
        <g transform="matrix(-2.28816,-22.0691,22.0691,-2.28816,1457.97,662.837)">
            <path d="M0,7.169C-0.702,6.791 -1.555,6.806 -2.266,6.432C-2.953,6.07 -3.305,5.313 -3.975,4.987C-4.75,4.611 -5.667,4.651 -6.355,4.078C-6.841,3.672 -7.072,3.046 -7.587,2.667C-9.378,1.349 -11.33,0.466 -13.217,-0.683C-14.125,-1.236 -14.773,-2.182 -15.721,-2.685C-16.348,-3.017 -17.104,-3.052 -17.752,-3.352C-18.46,-3.681 -18.786,-4.391 -19.434,-4.801C-20.001,-5.161 -20.751,-5.234 -21.276,-5.638C-21.706,-5.968 -21.953,-6.463 -22.431,-6.736C-22.914,-7.012 -23.507,-6.985 -23.974,-7.311C-24.753,-7.854 -25.115,-9.943 -27.169,-9.724C-27.966,-9.639 -31.807,-8.471 -32.473,-7.919C-33.289,-7.244 -33.812,-6.251 -34.692,-5.629C-35.378,-5.144 -36.271,-5.218 -37.003,-4.855C-37.851,-4.435 -38.473,-3.621 -39.248,-3.092C-40.509,-2.231 -42.651,-2.194 -44.141,-2.056C-45.083,-1.968 -45.891,-2.367 -46.805,-2.418C-49.593,-2.573 -52.377,-2.398 -55.165,-2.509C-56.168,-2.549 -57.118,-2.892 -58.138,-2.839C-58.87,-2.801 -59.709,-2.575 -60.299,-2.13C-61.625,-1.129 -62.068,0.747 -63.164,1.966C-64.797,3.783 -66.512,3.812 -66.958,6.955L-68.916,8.116C-71.967,10.933 -69.745,12.013 -66.055,12.35C-62.22,12.701 -58.384,13.254 -54.612,14.045C-52.47,14.495 -47.505,14.956 -45.316,14.722C-42.676,14.439 -40.003,13.527 -37.331,13.804C-35.552,13.988 -33.999,14.765 -32.271,15.059C-28.861,15.637 -25.465,15.817 -22.046,16.194C-20.832,16.328 -19.674,16.742 -18.457,16.843C-15.233,17.112 -11.746,16.753 -8.607,16.085C-6.766,15.691 -4.473,15.462 -2.585,15.462C-1.513,15.462 -0.55,15.938 0.498,16.069C1.997,16.258 8.262,16.053 8.387,13.65C8.528,10.932 4.08,10.041 2.315,9.035C1.451,8.543 0.883,7.645 0,7.169" style="fill:rgb(34,75,69);"/>
        </g>
    </g>
</svg>
