<?xml version="1.0" encoding="UTF-8" standalone="no"?>
<!DOCTYPE svg PUBLIC "-//W3C//DTD SVG 1.1//EN" "http://www.w3.org/Graphics/SVG/1.1/DTD/svg11.dtd">
<svg width="100%" height="100%" viewBox="0 0 1600 674" version="1.1" xmlns="http://www.w3.org/2000/svg" xmlns:xlink="http://www.w3.org/1999/xlink" xml:space="preserve" xmlns:serif="http://www.serif.com/" style="fill-rule:evenodd;clip-rule:evenodd;stroke-linejoin:round;stroke-miterlimit:2;">
    <g transform="matrix(1,0,0,1,0,-2513)">
        <g transform="matrix(1,0,0,1,57.9644,525.803)">
            <path d="M429.055,2221.72C442.171,2206.44 454.63,2191.14 470.051,2176.98C477.707,2169.95 490.007,2171.34 497.215,2162.56C502.543,2156.07 499.596,2144.71 505.543,2137.07C509.173,2132.41 515.687,2132.1 519.915,2128C523.898,2124.13 528.959,2110.67 531.34,2105C538.237,2088.63 500.429,2066.48 511.747,2050.49C520.331,2038.39 587.065,1984.11 598.415,1988.03C609.039,1991.69 601.971,2001.68 605.612,2008.88C608.377,2014.3 616.215,2014.57 619.632,2020.69C623.86,2028.29 617.571,2033.91 619.354,2040.61C620.667,2045.51 636.491,2064.16 640.837,2067.49C658.593,2081.07 674.279,2043.72 699.317,2079.73C706.823,2090.51 696.413,2100.07 694.309,2110.68C692.719,2118.76 703.353,2127.57 703.396,2136.27C703.428,2145.29 697.47,2162.39 704.421,2170.21C716.924,2184.26 762.079,2148.45 779.996,2150.87C794.442,2152.82 804.981,2166.53 814.324,2175.53C823.239,2184.1 832.796,2215.33 830.81,2228.21C830.671,2229.14 823.848,2229.2 823.111,2229.22C817.153,2229.46 812.647,2230.9 808.003,2234.8C792.307,2247.97 775.34,2272.32 757.573,2282.59C730.282,2298.36 721.494,2289.38 697.513,2295.56C688.426,2297.9 648.13,2338.72 648.044,2344.21C647.98,2348.67 655.081,2367 656.159,2374.81C657.568,2385.14 638.029,2404.3 646.923,2412.74C652.304,2417.86 661.637,2414.12 667.584,2417.34C675.346,2421.52 686.408,2425.94 693.53,2431.42C699.157,2435.74 702.35,2442.62 708.425,2446.32C714.917,2450.24 722.968,2446.64 728.872,2449.99C734.809,2453.35 736.453,2461.28 741.13,2465.99C748.348,2473.26 759.036,2476.11 766.51,2483.72C772.159,2489.47 781.993,2497.66 785.708,2505C791.207,2515.87 792.585,2532.55 800.251,2541.81C803.988,2546.33 813.886,2548.26 818.84,2552.96C823.133,2557.04 827.126,2563.38 833.49,2564.41C838.199,2565.14 842.384,2561.75 846.858,2560.76C883.866,2552.5 866.899,2520.35 895.152,2503.11C899.188,2500.64 903.342,2504.33 907.773,2501.9C914.467,2498.25 917.98,2488.44 926.074,2487.05C961.437,2480.95 978.607,2507.8 1000.19,2464.11C1005.15,2454.07 1012.1,2447.22 1014.46,2435.68C1014.66,2434.71 1014.87,2433.73 1015.08,2432.74C1012.74,2422.95 1010.7,2413.38 1009.38,2404.21C1007.79,2393.21 1009.31,2382.43 1010.18,2371.5C1005.55,2366.63 1000.12,2361.88 997.175,2359.83C995.541,2358.68 985.665,2356.51 985.184,2355.56C982.664,2350.49 984.714,2347.13 978.628,2343.77C969.937,2338.96 956.921,2339.06 949.778,2332.02C942.965,2325.31 942.763,2301.44 928.679,2291.15C915.001,2281.15 871.619,2272.27 864.508,2258.43C848.374,2227.03 871.352,2230.39 882.147,2207.47C885.382,2200.62 883.161,2192.42 886.076,2185.88C892.92,2170.63 920.062,2146.23 938.406,2147.75C942.528,2148.09 944.845,2152.42 948.87,2153.09C954.316,2154 959.259,2150.64 964.384,2151.51C964.705,2151.57 965.068,2151.77 965.335,2151.96C971.389,2156.4 968.004,2166.79 972.788,2172.43C978.436,2179.07 985.963,2178.02 993.032,2181.32C1000.54,2184.83 1002.29,2198.48 1012.13,2197.52C1027.76,2195.99 1062.7,2132.28 1078.06,2135.32C1086.48,2136.98 1086.67,2144.86 1093.7,2147.71C1097.86,2149.39 1104.11,2147.8 1107.46,2151.4C1112.43,2156.75 1107.71,2164.04 1111.11,2169.36C1115.98,2176.97 1129.26,2179.55 1130.61,2189.74C1132.08,2200.72 1121.65,2219.24 1127.92,2229.59C1135.88,2242.68 1160.85,2249.51 1165.96,2259.29C1167.86,2262.91 1168.13,2266.79 1168.57,2270.63C1173.86,2273.42 1178.39,2276.96 1181.58,2281.71C1186.54,2289.13 1165.71,2331.01 1177.36,2337.97C1196.14,2349.19 1221.87,2347.96 1241.69,2355.96C1248.5,2358.73 1249.69,2366.23 1257.55,2368.26C1264.05,2369.95 1270.73,2369.3 1277.2,2368.08C1310.36,2361.81 1303.7,2335.07 1338.17,2344.55C1350.58,2347.96 1352.99,2369.19 1356.89,2378.15C1361.95,2389.73 1378.28,2399.29 1388.4,2406.84C1406.33,2420.18 1423.96,2404.25 1438.81,2404.25C1454.97,2404.25 1490.02,2407.2 1504.83,2414.16C1518.61,2420.63 1502.74,2443.77 1509.51,2458.87C1516.82,2475.13 1533.4,2466.93 1544.25,2473.1C1554.06,2478.68 1554.75,2493.33 1565.83,2496.58C1586.06,2502.5 1622.13,2483.77 1647.23,2489.27C1660.43,2492.17 1678.48,2493.2 1690.39,2499.23C1698.32,2503.22 1702.95,2510.84 1711.78,2514.07C1721.34,2517.56 1733.04,2512.99 1741.63,2516.36C1749.61,2519.49 1754.08,2527.39 1763.29,2528.15C1768.99,2528.62 1774.52,2524.32 1779.93,2525.98C1795.71,2530.81 1806.01,2543.7 1820.09,2550.25C1830.78,2555.23 1843.16,2552.95 1853.59,2557.65C1869.02,2564.6 1881.32,2574.52 1895.26,2582.93C1898.69,2585.06 1902.25,2587.06 1905.97,2588.9C1918.14,2594.92 1948.75,2596.17 1960.51,2591.12C1960.85,2590.97 1962.7,2589.99 1963.06,2590.24C1968.31,2593.91 1970.36,2600.49 1976.05,2604.11C1994.83,2616.04 2015.14,2625.5 2031.4,2640.96C2038.8,2648.01 2038.44,2659.06 2047.7,2665.68C2056.88,2672.24 2072.99,2671.5 2081,2679.74L1172.8,2679.74L1172.8,2828.57L427.203,2828.57L427.203,2711.74L-596.929,2711.74C-588.915,2703.5 -572.805,2704.24 -563.631,2697.68C-554.373,2691.06 -554.733,2680.01 -547.327,2672.96C-531.065,2657.5 -510.754,2648.04 -491.977,2636.11C-486.285,2632.49 -484.24,2625.91 -478.99,2622.24C-478.63,2621.99 -476.779,2622.97 -476.434,2623.12C-464.676,2628.17 -434.072,2626.92 -421.899,2620.9C-418.182,2619.06 -414.618,2617.06 -411.191,2614.93C-397.25,2606.52 -384.953,2596.6 -369.52,2589.65C-359.088,2584.95 -346.709,2587.23 -336.015,2582.25C-321.935,2575.7 -311.642,2562.81 -295.863,2557.98C-290.447,2556.32 -284.92,2560.62 -279.214,2560.15C-270.012,2559.39 -265.536,2551.49 -257.563,2548.36C-248.969,2544.99 -237.267,2549.56 -227.706,2546.07C-218.877,2542.84 -214.248,2535.22 -206.317,2531.23C-194.407,2525.2 -176.363,2524.17 -163.154,2521.27C-138.063,2515.77 -101.988,2534.5 -81.76,2528.58C-70.679,2525.33 -69.988,2510.68 -60.178,2505.1C-49.332,2498.93 -32.752,2507.13 -25.443,2490.87C-18.673,2475.77 -34.535,2452.63 -20.759,2446.16C-5.948,2439.2 29.105,2436.25 45.257,2436.25C60.11,2436.25 77.74,2452.18 95.674,2438.84C105.788,2431.29 122.119,2421.73 127.176,2410.15C131.086,2401.19 133.49,2379.96 145.898,2376.55C180.37,2367.07 173.711,2393.81 206.871,2400.08C213.337,2401.3 220.024,2401.95 226.518,2400.26C234.38,2398.23 235.568,2390.73 242.379,2387.96C262.206,2379.96 287.933,2381.19 306.71,2369.97C318.357,2363.01 297.536,2321.13 302.496,2313.71C317.169,2291.79 360.54,2295.64 374.757,2280.57C386.888,2267.72 377.7,2241.41 397.762,2229.68C406.902,2224.34 418.036,2222.82 429.055,2221.72Z" style="fill:rgb(34,75,69);fill-rule:nonzero;"/>
        </g>
    </g>
</svg>
