<?xml version="1.0" encoding="UTF-8" standalone="no"?>
<!DOCTYPE svg PUBLIC "-//W3C//DTD SVG 1.1//EN" "http://www.w3.org/Graphics/SVG/1.1/DTD/svg11.dtd">
<svg width="100%" height="100%" viewBox="0 0 309 1483" version="1.1" xmlns="http://www.w3.org/2000/svg" xmlns:xlink="http://www.w3.org/1999/xlink" xml:space="preserve" xmlns:serif="http://www.serif.com/" style="fill-rule:evenodd;clip-rule:evenodd;stroke-linejoin:round;stroke-miterlimit:2;">
    <g transform="matrix(1,0,0,1,0,-773)">
        <g transform="matrix(0.542533,-18.8107,-18.8107,-0.542533,284.138,888.671)">
            <path d="M0,14.234C-1.068,13.973 -2.084,13.528 -3.18,13.359C-4.347,13.18 -5.661,13.358 -6.772,12.945C-8.3,12.379 -9.273,10.755 -10.94,10.276C-13.006,9.683 -15.32,9.881 -17.403,9.396C-19.387,8.934 -21.018,7.462 -23.01,7.141C-24.05,6.974 -25.095,7.487 -26.14,7.406C-28.186,7.247 -34.958,5.751 -36.767,4.844C-37.881,4.285 -38.662,2.694 -39.59,1.88C-40.746,0.866 -47.577,-2.714 -48.772,-2.72C-49.892,-2.725 -52.353,-0.988 -52.942,-0.193C-53.407,0.434 -53.505,1.308 -54.182,1.781C-55.571,2.754 -57.475,4.13 -59.044,4.691C-60.024,5.04 -61.009,4.727 -61.958,5.268C-63.061,5.897 -63.848,7.27 -64.838,8.087C-66.47,9.432 -68.428,10.403 -70.005,11.86L-71.841,12.288C-72.041,12.439 -73.067,13.048 -73.037,13.397C-73.034,13.428 -72.534,13.4 -72.473,13.398C-71.207,13.373 -69.889,13.954 -68.585,14.038C-65.62,14.23 -62.627,13.965 -59.619,14.095C-57.34,14.193 -55.07,14.564 -52.786,14.68C-48.669,14.89 -44.498,15.101 -40.383,15.473C-38.885,15.608 -37.424,16.073 -35.922,16.13C-33.326,16.228 -30.723,15.59 -28.098,15.752C-22.788,16.078 -17.164,16.838 -11.838,16.346C-7.315,15.929 -2.795,16.959 1.688,16.701C2.325,16.665 5.661,16.372 5.703,15.449C5.708,15.307 5.233,15.237 5.149,15.216C3.461,14.781 1.696,14.649 0,14.234" style="fill:rgb(34,75,69);"/>
        </g>
    </g>
</svg>
