<?xml version="1.0" encoding="UTF-8" standalone="no"?>
<!DOCTYPE svg PUBLIC "-//W3C//DTD SVG 1.1//EN" "http://www.w3.org/Graphics/SVG/1.1/DTD/svg11.dtd">
<svg width="100%" height="100%" viewBox="0 0 525 216" version="1.1" xmlns="http://www.w3.org/2000/svg" xmlns:xlink="http://www.w3.org/1999/xlink" xml:space="preserve" xmlns:serif="http://www.serif.com/" style="fill-rule:evenodd;clip-rule:evenodd;stroke-linejoin:round;stroke-miterlimit:2;">
    <g transform="matrix(1,0,0,1,-682,-105)">
        <g transform="matrix(0.707525,0,-0.0153895,0.805667,622.157,-246.686)">
            <path d="M261.373,474.877C284.436,452.972 318.468,437.473 358.846,437.473C399.425,437.473 427.742,457.393 447.063,483.164C467.721,470.712 493.27,462.843 522.042,462.843C578.099,462.843 610.756,500.856 628.608,539.778C647.916,532.274 666.457,518.474 719.455,527.33C753.416,533.005 830.565,571.488 837.062,596.705C843.391,621.268 835.371,662.453 810.634,668.062C745.553,682.818 541.393,698.675 445.259,703.08C374.35,706.329 294.265,701.869 233.831,694.491C158.07,685.241 106.468,655.064 97.724,576.884C91.014,516.891 148.094,470.04 213.349,463.241C231.351,461.365 247.182,466.262 261.373,474.877Z" style="fill:rgb(255,246,225);"/>
        </g>
    </g>
</svg>
