<?xml version="1.0" encoding="UTF-8" standalone="no"?>
<!DOCTYPE svg PUBLIC "-//W3C//DTD SVG 1.1//EN" "http://www.w3.org/Graphics/SVG/1.1/DTD/svg11.dtd">
<svg width="100%" height="100%" viewBox="0 0 1600 2604" version="1.1" xmlns="http://www.w3.org/2000/svg" xmlns:xlink="http://www.w3.org/1999/xlink" xml:space="preserve" xmlns:serif="http://www.serif.com/" style="fill-rule:evenodd;clip-rule:evenodd;stroke-linejoin:round;stroke-miterlimit:2;">
    <g transform="matrix(1,0,0,1,0,-583)">
        <g transform="matrix(1,0,0,1.16352,0,-529.343)">
            <path d="M1600,1653.17L1600,956.139C1590.04,964.491 1573.42,967.966 1564.66,978.227C1547.29,998.486 1542.68,1014.25 1518.39,1030C1497.12,1043.76 1465.95,1016.67 1444.61,1039.8C1436.24,1048.86 1438.23,1064 1430.55,1074C1423.81,1082.77 1386.58,1120.93 1379.06,1126.36C1370.93,1132.23 1360.49,1131.08 1352.89,1138.39C1343.52,1147.37 1342.99,1161.96 1333.14,1171.13C1317.65,1185.55 1288.62,1182.57 1274.19,1196.73C1262.08,1208.6 1272.1,1230.15 1259.21,1239.22C1247.79,1247.27 1186.22,1255.98 1180.03,1261.25C1168.42,1271.1 1170.23,1287.01 1162.45,1298.98C1156.56,1308.04 1145.1,1308.25 1138.15,1316.17C1126.68,1329.15 1120.04,1354.64 1105.76,1363.86C1093.85,1371.52 1042.36,1361.79 1026.35,1373.41C1009.89,1385.36 976.601,1413.75 971.034,1434.39C967.336,1448.03 970.851,1462.21 965.446,1475.64C960.671,1487.57 949.393,1487.73 942.383,1497.12C934.986,1506.95 932.913,1519.76 924.623,1529.25C905.644,1550.97 863.5,1553.31 837.551,1563.57C828.021,1567.33 826.843,1580.92 818.471,1586.63C809.063,1593.07 792.014,1586.59 781.245,1590.23C767.325,1594.94 764.094,1610.97 747.452,1614.04C738.979,1615.59 716.383,1605.14 707.788,1601.36C686.025,1591.77 670.358,1575.21 650.587,1564.18C621.671,1548.04 604.379,1552.72 573.98,1520.93C565.202,1511.77 566.32,1499.99 560.833,1489.28C553.782,1475.52 527.854,1459.3 515.072,1451.32C506.416,1445.91 497.821,1449.27 488.636,1446.85C475.022,1443.33 421.356,1421.77 410.729,1413.04C396.871,1401.68 393.559,1361.93 372.182,1345.21C339.67,1319.79 316.708,1325.29 286.025,1312.67C270.216,1306.17 258.898,1290.3 242.296,1283.45C229.738,1278.31 215.25,1282.7 203.383,1276.04C176.886,1261.14 172.05,1227.94 151.892,1207.97C144.313,1200.43 131.897,1200.41 124.846,1192.38C118.283,1184.88 119.36,1175.98 110.155,1169.21C96.012,1158.83 82.276,1175.11 67.584,1166.84C31.191,1146.27 32.918,1045.08 0,1012.16L0,1653.17L-74,1653.17L-74,3170L1670.55,3170L1670.55,1653.17L1600,1653.17Z" style="fill:rgb(78,129,165);"/>
        </g>
    </g>
</svg>
