<?xml version="1.0" encoding="UTF-8" standalone="no"?>
<!DOCTYPE svg PUBLIC "-//W3C//DTD SVG 1.1//EN" "http://www.w3.org/Graphics/SVG/1.1/DTD/svg11.dtd">
<svg width="100%" height="100%" viewBox="0 0 1600 1302" version="1.1" xmlns="http://www.w3.org/2000/svg" xmlns:xlink="http://www.w3.org/1999/xlink" xml:space="preserve" xmlns:serif="http://www.serif.com/" style="fill-rule:evenodd;clip-rule:evenodd;stroke-linejoin:round;stroke-miterlimit:2;">
    <g transform="matrix(1,0,0,1,0,-1885)">
        <g transform="matrix(32.0229,10.3762,-10.3762,32.0229,174.254,1773.06)">
            <path d="M0,31.161C-0.247,31.453 -0.132,31.854 -0.378,32.115C-0.643,32.397 -1.103,32.382 -1.358,32.661C-1.684,33.015 -1.596,33.567 -1.916,33.898C-2.168,34.16 -2.565,34.182 -2.802,34.467C-3.126,34.856 -3.06,35.407 -3.551,35.671C-4.542,36.204 -5.806,35.089 -6.73,35.683C-6.832,35.749 -6.939,35.85 -7.047,35.975L-7.047,54.951L56.225,54.951L56.225,-23.79C54.63,-23.264 51.631,-21.432 51.229,-19.986C51.019,-19.227 51.355,-18.147 50.833,-17.498C50.805,-17.463 50.775,-17.43 50.745,-17.396C49.549,-16.061 48.382,-16.781 47.383,-15.974C46.561,-15.309 44.496,-12.973 43.993,-12.123C43.731,-11.681 43.863,-11.033 43.405,-10.723C43.181,-10.571 39.082,-8.512 38.988,-8.486C38.335,-8.301 37.682,-8.446 37.033,-8.319C35.703,-8.06 34.106,-6.374 33.353,-5.249C33.128,-4.912 32.051,-0.086 31.715,0.658C31.416,1.319 29.844,2.378 29.703,2.798C29.489,3.436 30.373,3.696 30.525,4.14C30.757,4.82 29.877,5.249 29.549,5.687C29.271,6.059 29.605,6.492 29.306,6.834C28.259,8.028 27.834,7.363 26.851,7.809C26.479,7.977 26.289,8.442 25.915,8.642C25.382,8.927 24.742,8.884 24.221,9.164C23.017,9.809 22.57,11.427 22.034,12.502C21.985,12.6 21.883,12.69 21.788,12.741C21.089,13.113 20.359,12.726 19.693,12.961C19.048,13.188 18.943,13.869 18.396,14.192C17.924,14.472 17.332,14.349 16.935,14.774C16.522,15.216 15.868,15.722 15.657,16.284C15.265,17.331 15.648,20.623 14.333,21.186C13.737,21.44 11.168,21.96 10.511,21.698C9.233,21.187 8.083,18.176 6.389,19.446C5.479,20.127 4.508,21.405 4.406,22.543C4.376,22.88 4.603,23.526 4.457,23.833C4.151,24.482 3.289,25.017 3.016,25.831C2.832,26.381 3.021,27.18 2.697,27.66C2.267,28.298 1.615,28.827 1.149,29.46C0.903,29.794 1.116,30.111 0.965,30.414C0.75,30.847 0.282,30.827 0,31.161" style="fill:rgb(57,111,146);"/>
        </g>
    </g>
</svg>
