<?xml version="1.0" encoding="UTF-8" standalone="no"?>
<!DOCTYPE svg PUBLIC "-//W3C//DTD SVG 1.1//EN" "http://www.w3.org/Graphics/SVG/1.1/DTD/svg11.dtd">
<svg width="100%" height="100%" viewBox="0 0 860 347" version="1.1" xmlns="http://www.w3.org/2000/svg" xmlns:xlink="http://www.w3.org/1999/xlink" xml:space="preserve" xmlns:serif="http://www.serif.com/" style="fill-rule:evenodd;clip-rule:evenodd;stroke-linejoin:round;stroke-miterlimit:2;">
    <g transform="matrix(1,0,0,1,-704,-144)">
        <g transform="matrix(10.906,0,0,10.906,1524.41,266.798)">
            <path d="M0,9.522C-0.279,8.54 -1.032,7.736 -1.376,6.76C-1.684,5.888 -1.493,4.865 -1.889,4.033C-2.588,2.567 -4.338,1.769 -5.434,0.644C-6.141,-0.082 -5.879,-1.26 -6.474,-2.085C-7.188,-3.079 -8.332,-3.601 -9.091,-4.516C-9.692,-5.24 -9.548,-6.236 -10.038,-7.02C-10.663,-8.023 -12.013,-9.307 -12.811,-10.314C-12.961,-10.504 -13.165,-11.132 -13.415,-11.187C-15.278,-11.604 -17.707,-7.14 -18.453,-5.988C-18.939,-5.236 -20.371,-5.062 -21.085,-4.6C-22.06,-3.969 -23.373,-3.086 -24.14,-2.234C-25.152,-1.109 -25.437,0.311 -27.041,0.798C-28.435,1.222 -30.705,1.075 -32.046,0.535C-32.541,0.336 -32.839,-0.158 -33.34,-0.319C-33.911,-0.502 -34.537,-0.437 -35.116,-0.63C-35.648,-0.808 -36.096,-1.209 -36.647,-1.322C-39.829,-1.971 -43.467,-1.702 -46.633,-1.107C-47.55,-0.935 -48.159,0.063 -48.996,0.446C-50.349,1.064 -51.929,1.026 -53.221,1.874C-54.089,2.443 -54.042,3.71 -54.805,4.313C-55.445,4.819 -56.395,4.879 -57.118,5.24C-57.949,5.655 -58.703,6.512 -59.397,7.118C-60.332,7.934 -61.015,8.976 -61.884,9.852C-62.417,10.388 -63.147,10.678 -63.667,11.209C-64.331,11.887 -64.653,12.756 -65.477,13.308C-68.534,15.355 -73.41,14.592 -75.184,18.506L-75.07,18.414C-74.341,18.953 -69.161,19.631 -68.141,19.624C-67.09,19.616 -66.062,19.259 -65.001,19.269C-60.163,19.313 -55.362,19.201 -50.51,19.524C-49.138,19.615 -47.899,20.211 -46.516,20.231C-45.339,20.248 -44.205,19.769 -43.038,19.811C-39.074,19.955 -35.183,19.267 -31.217,19.296C-28.168,19.32 -25.101,19.797 -22.059,19.782C-20.711,19.775 -19.43,19.292 -18.077,19.312C-16.109,19.34 -14.153,19.838 -12.196,19.991C-11.259,20.064 -10.357,19.877 -9.423,19.881C-7.764,19.888 -5.104,19.883 -3.533,20.033C-1.557,20.22 0.445,21.126 2.307,19.936C4.629,18.451 3.106,17.46 2.552,15.614C2.295,14.759 2.288,13.924 1.77,13.164C1.361,12.562 0.666,12.202 0.287,11.583C-0.08,10.984 0.187,10.18 0,9.522" style="fill:rgb(206,149,76);fill-opacity:0.39;"/>
        </g>
    </g>
</svg>
