<?xml version="1.0" encoding="UTF-8" standalone="no"?>
<!DOCTYPE svg PUBLIC "-//W3C//DTD SVG 1.1//EN" "http://www.w3.org/Graphics/SVG/1.1/DTD/svg11.dtd">
<svg width="100%" height="100%" viewBox="0 0 1140 236" version="1.1" xmlns="http://www.w3.org/2000/svg" xmlns:xlink="http://www.w3.org/1999/xlink" xml:space="preserve" xmlns:serif="http://www.serif.com/" style="fill-rule:evenodd;clip-rule:evenodd;stroke-linejoin:round;stroke-miterlimit:2;">
    <g transform="matrix(1,0,0,1,-460,-297)">
        <g transform="matrix(15.3638,0,0,15.3638,652.8,323.549)">
            <path d="M0,11.946C2.484,12.383 5.552,12.528 8.064,12.389C9.499,12.31 10.811,12.731 12.222,12.738C15.113,12.752 18.005,12.532 20.9,12.66C25.824,12.877 30.744,13.603 35.682,13.631C37.843,13.643 39.964,13.23 42.104,13.21C44.214,13.191 46.209,13.598 48.345,13.48C52.907,13.23 57.634,13.347 62.146,12.811C63.379,12.664 66.286,12.841 66.243,12.339C66.211,11.965 61.836,9.071 61.216,8.822C58.448,7.711 55.832,6.053 52.707,6.326C49.855,6.575 47.553,8.38 44.406,7.709C41.436,7.075 38.756,5.569 36.048,4.267C34.89,3.71 33.775,2.519 32.436,2.409C31.083,2.298 27.76,3.468 26.483,4.081C25.336,4.632 25.241,5.659 23.68,5.311C22.606,5.072 21.583,3.908 20.557,3.45C19.375,2.924 18.104,3.082 16.911,2.636C16.17,2.358 15.684,1.602 14.929,1.386C13.895,1.09 13.018,2.174 12.083,2.342C11.386,2.467 9.322,1.769 8.624,1.529C8.037,1.328 6.947,0.938 6.486,0.539C5.745,-0.102 5.515,-1.697 4.247,-1.686C1.876,-1.666 0.528,1.872 -0.908,3.206C-3.502,5.617 -7.551,5.775 -9.884,8.348L-11.109,9.095C-11.246,9.176 -12.646,9.804 -12.483,10.082C-12.478,10.093 -12.457,10.114 -12.447,10.124C-12.394,10.176 -7.559,10.841 -7.25,10.83C-4.894,10.755 -2.313,11.539 0,11.946" style="fill:rgb(206,149,76);"/>
        </g>
    </g>
</svg>
