<?xml version="1.0" encoding="UTF-8" standalone="no"?>
<!DOCTYPE svg PUBLIC "-//W3C//DTD SVG 1.1//EN" "http://www.w3.org/Graphics/SVG/1.1/DTD/svg11.dtd">
<svg width="100%" height="100%" viewBox="0 0 257 483" version="1.1" xmlns="http://www.w3.org/2000/svg" xmlns:xlink="http://www.w3.org/1999/xlink" xml:space="preserve" xmlns:serif="http://www.serif.com/" style="fill-rule:evenodd;clip-rule:evenodd;stroke-linejoin:round;stroke-miterlimit:2;">
    <g transform="matrix(1,0,0,1,-53,-2676)">
        <g transform="matrix(6.12448,0,0,6.12448,272.366,2919.97)">
            <path d="M0,-1.198C-0.242,0.268 -0.513,1.729 -0.853,3.185C-1.419,5.609 -2.617,7.964 -2.802,10.461C-2.865,11.32 -2.842,12.17 -2.773,13.015C0.076,9.637 0.963,5.35 0.546,0.797C0.509,0.395 0.277,-0.36 0,-1.198M-9.527,13.478C-9.208,16.05 -8.688,18.605 -9.202,21.247C-9.686,23.725 -11.146,25.747 -12.404,27.655C-9.583,24.838 -6.162,22.297 -7.438,17.666C-7.954,15.795 -8.761,14.614 -9.527,13.478M-11.528,-9.958C-11.516,-8.779 -11.543,-7.874 -11.599,-7.51C-12.327,-2.74 -14.468,1.515 -15.771,6.114C-16.667,9.273 -16.193,12.389 -16.423,15.598C-16.676,19.118 -18.14,22.477 -18.095,26.022C-18.063,28.483 -16.763,31.634 -15.99,34.056C-16.04,29.701 -13.057,25.574 -11.981,21.13C-10.987,17.023 -13.046,12.341 -12.955,8.12C-12.867,4.07 -10.771,0.306 -10.785,-3.663C-10.792,-5.638 -10.804,-7.688 -11.406,-9.59C-11.445,-9.713 -11.486,-9.836 -11.528,-9.958M-29.947,-16.467C-29.686,-18.262 -29.44,-20.06 -29.336,-21.869C-29.003,-27.646 -31.103,-30.331 -33.151,-35.371C-33.561,-36.38 -34.554,-39.057 -33.085,-39.636C-31.583,-40.227 -31.544,-37.181 -30.875,-36.531C-29.901,-35.584 -28.381,-37.92 -27.543,-36.918C-26.14,-35.24 -28.182,-32.576 -26.087,-30.892C-23.133,-28.516 -22.891,-36.678 -20.956,-33.442C-19.794,-31.499 -24.097,-25.633 -24.501,-22.616C-24.764,-20.661 -24.756,-18.679 -25.045,-16.726C-25.79,-11.683 -27.25,-6.355 -26.372,-1.239C-25.919,1.402 -24.498,3.446 -23.6,5.907C-22.906,7.81 -22.664,14.594 -20.339,15.14C-19.639,15.305 -19.795,12.527 -19.81,12.198C-19.965,8.877 -20.541,5.963 -21.308,2.73C-22.119,-0.686 -23.612,-4.26 -23.164,-7.821C-22.649,-11.909 -20.389,-15.686 -20.314,-19.828C-20.288,-21.289 -22.135,-27.075 -20.604,-27.989C-19.246,-28.8 -19.577,-24.289 -18.821,-23.657C-17.997,-22.967 -15.597,-23.459 -15.349,-22.298C-15.037,-20.837 -17.041,-18.657 -17.585,-17.35C-18.629,-14.844 -21.052,-6.727 -17.625,-4.955C-14.45,-3.314 -13.917,-12.884 -13.862,-16.32C-13.897,-16.504 -13.928,-16.69 -13.953,-16.879C-14.046,-17.586 -14.034,-18.286 -13.967,-18.982C-13.983,-19.707 -13.938,-20.46 -13.698,-20.779C-13.418,-22.296 -13.073,-23.805 -13.182,-25.34C-13.259,-26.451 -13.989,-32.382 -11.711,-31.956C-9.831,-31.604 -11.656,-25.235 -11.678,-23.983C-11.708,-22.364 -11.503,-20.652 -10.99,-19.114C-10.116,-16.497 -8.853,-14.078 -7.767,-11.624C-7.789,-11.989 -7.826,-12.353 -7.879,-12.719C-8.134,-14.475 -13.543,-23.853 -10.116,-24.581C-8.468,-24.93 -9.56,-20.868 -8.609,-19.802C-7.43,-18.479 -6.094,-17.83 -5.25,-16.122C-4.063,-13.722 -4.795,-9.338 -5.771,-5.43C-5.579,-4.217 -5.52,-2.957 -5.647,-1.628C-5.883,0.829 -7.173,2.895 -8.238,5.023C-8.25,6.403 -7.883,7.582 -6.634,7.767C-4.984,8.01 -4.347,2.062 -4.119,0.887C-2.847,-5.658 -4.482,-10.405 -4.69,-16.806C-4.743,-18.432 -4.766,-21.892 -2.978,-22.746C1.653,-24.959 -4.056,-10.237 -1.142,-9.198C-0.688,-9.037 -0.373,-11.855 -0.358,-12.199C-0.318,-13.139 -0.943,-22.969 1.342,-22.39C3.688,-21.796 1.148,-8.518 0.901,-6.994C0.839,-6.608 0.778,-6.221 0.718,-5.835C1.115,-5.863 1.512,-5.905 1.857,-6.122C2.011,-6.219 2.12,-6.351 2.214,-6.506C2.903,-7.64 3.665,-9.462 5.39,-8.712C5.767,-8.548 6.017,-8.25 6.009,-7.82C5.986,-6.646 3.447,-5.26 3.05,-3.45C2.262,0.142 4.511,3.293 3.434,7.259C2.35,11.253 -0.656,14.066 -2.161,17.755C-1.908,19.85 -1.84,21.946 -2.587,24.086C-5.281,31.807 -13.057,29.811 -12.976,38.806L-14.907,39.029C-15.101,38.713 -15.261,37.549 -15.495,36.884C-19.432,34.278 -23.682,30.512 -24.656,25.926C-25.207,23.332 -24.292,20.529 -25.078,17.986C-26.381,13.768 -28.918,9.963 -29.807,5.61C-30.805,0.723 -31.076,-4.968 -30.75,-9.933C-30.744,-10.013 -30.739,-10.094 -30.733,-10.173C-31.585,-12.987 -33.275,-15.349 -34.063,-18.423C-34.546,-20.303 -33.292,-22.07 -33.742,-23.923C-34.01,-25.031 -35.652,-26.187 -35.663,-27.156C-35.664,-27.331 -35.574,-27.45 -35.443,-27.56C-34.166,-28.644 -32.879,-26.206 -32.217,-25.52C-32.154,-25.454 -32.086,-25.391 -32.011,-25.339C-31.898,-25.26 -31.767,-25.185 -31.628,-25.175C-31.538,-25.168 -31.569,-25.169 -31.479,-25.171C-30.748,-25.196 -30.084,-25.727 -29.731,-24.755C-29.197,-23.279 -30.958,-22.444 -31.235,-21.169C-31.564,-19.659 -30.871,-17.908 -29.947,-16.467" style="fill:rgb(29,42,47);"/>
        </g>
    </g>
</svg>
