<?xml version="1.0" encoding="UTF-8" standalone="no"?>
<!DOCTYPE svg PUBLIC "-//W3C//DTD SVG 1.1//EN" "http://www.w3.org/Graphics/SVG/1.1/DTD/svg11.dtd">
<svg width="100%" height="100%" viewBox="0 0 359 491" version="1.1" xmlns="http://www.w3.org/2000/svg" xmlns:xlink="http://www.w3.org/1999/xlink" xml:space="preserve" xmlns:serif="http://www.serif.com/" style="fill-rule:evenodd;clip-rule:evenodd;stroke-linejoin:round;stroke-miterlimit:2;">
    <g transform="matrix(1,0,0,1,-1241,-650)">
        <g transform="matrix(2.82568,-4.80237,4.80237,2.82568,1578.17,865.905)">
            <path d="M0,-34.897C-2.465,-36.278 -3.322,-38.323 -3.268,-40.546C-3.185,-43.888 -0.791,-47.762 1.337,-50.26C1.714,-50.703 2.378,-50.756 2.821,-50.379C3.263,-50.002 3.316,-49.338 2.939,-48.896C1.089,-46.723 -1.092,-43.402 -1.163,-40.495C-1.205,-38.802 -0.408,-37.309 1.754,-36.378C3.391,-37.8 4.95,-39.286 6.21,-40.827C7.944,-42.949 9.107,-45.167 8.874,-47.504C8.816,-48.082 9.239,-48.598 9.817,-48.655C10.395,-48.712 10.911,-48.29 10.968,-47.712C11.253,-44.853 9.96,-42.09 7.84,-39.496C4.209,-35.052 -1.905,-31.078 -5.241,-27.728C-2.811,-26.37 -0.484,-25.667 1.87,-25.642C3.381,-25.626 4.901,-25.89 6.462,-26.426C5.615,-28.098 5.437,-29.774 5.777,-31.375C6.179,-33.257 7.322,-35.05 9.032,-36.6C9.462,-36.99 10.129,-36.958 10.519,-36.527C10.909,-36.097 10.876,-35.43 10.446,-35.041C9.094,-33.816 8.153,-32.423 7.835,-30.936C7.58,-29.735 7.75,-28.482 8.419,-27.229C8.763,-27.392 9.109,-27.568 9.458,-27.756C10.374,-28.249 11.297,-28.689 12.089,-29.298C12.546,-29.649 12.957,-30.059 13.284,-30.587C13.869,-31.534 14.217,-32.721 14.458,-33.971C14.839,-35.95 14.941,-38.085 15.119,-39.812C15.178,-40.39 15.695,-40.811 16.273,-40.752C16.851,-40.693 17.272,-40.175 17.212,-39.598C17.03,-37.816 16.918,-35.615 16.525,-33.573C16.233,-32.057 15.783,-30.628 15.074,-29.481C15.019,-29.392 14.962,-29.306 14.905,-29.221C16.418,-29.064 17.985,-29.195 19.423,-29.665C21.122,-30.22 22.641,-31.256 23.646,-32.873C23.953,-33.366 24.603,-33.517 25.095,-33.21C25.588,-32.904 25.74,-32.254 25.433,-31.761C24.155,-29.706 22.238,-28.371 20.078,-27.665C17.974,-26.976 15.64,-26.889 13.474,-27.308C13.346,-27.333 13.227,-27.379 13.122,-27.445C12.301,-26.859 11.378,-26.4 10.456,-25.903C9.862,-25.584 9.276,-25.296 8.696,-25.043C8.676,-25.027 8.656,-25.011 8.635,-24.997C8.486,-24.892 8.32,-24.832 8.151,-24.813C5.992,-23.937 3.911,-23.516 1.848,-23.538C-0.959,-23.566 -3.741,-24.415 -6.649,-26.109C-7.161,-25.402 -7.548,-24.671 -7.862,-23.925C-8.883,-21.497 -9.178,-18.905 -10.166,-16.301C-10.442,-15.573 -10.775,-14.874 -11.136,-14.187C-11.879,-12.771 -12.745,-11.418 -13.408,-9.96C-12.175,-7.359 -11.335,-4.654 -10.792,-1.888C-10.307,0.583 -10.061,3.106 -9.984,5.646C-8.626,4.853 -7.68,3.54 -7.048,2.055C-6.292,0.281 -5.985,-1.744 -6.019,-3.53C-6.03,-4.11 -5.567,-4.59 -4.986,-4.602C-4.406,-4.613 -3.925,-4.15 -3.915,-3.57C-3.867,-1.086 -4.406,1.79 -5.708,4.091C-6.642,5.742 -7.964,7.1 -9.718,7.869C-9.796,7.903 -9.877,7.927 -9.959,7.942C-9.972,9.756 -10.061,11.578 -10.201,13.391C-9.747,13.207 -9.323,12.98 -8.917,12.723C-7.634,11.913 -6.521,10.826 -5.299,9.815C-1.148,6.382 1.152,2.708 2.426,-1.381C2.8,-2.585 3.087,-3.824 3.308,-5.102C1.484,-5.825 -1.513,-8.003 -3.103,-10.443C-4.498,-12.583 -4.824,-14.884 -3.08,-16.726C-2.681,-17.148 -2.014,-17.166 -1.592,-16.766C-1.171,-16.367 -1.153,-15.701 -1.552,-15.279C-2.577,-14.196 -2.159,-12.85 -1.34,-11.592C-0.114,-9.711 2.09,-7.987 3.615,-7.256C3.909,-9.793 4,-12.482 4.037,-15.351C4.044,-15.931 4.522,-16.397 5.102,-16.389C5.683,-16.382 6.149,-15.905 6.142,-15.324C6.126,-14.119 6.1,-12.944 6.054,-11.797C8.434,-11.998 10.393,-13.082 11.854,-14.692C13.444,-16.445 14.451,-18.808 14.796,-21.34C14.875,-21.916 15.406,-22.319 15.981,-22.241C16.557,-22.162 16.96,-21.631 16.881,-21.056C16.476,-18.089 15.275,-15.331 13.413,-13.278C11.545,-11.219 9.019,-9.859 5.941,-9.679C5.652,-5.399 4.977,-1.525 3.377,2.057C2.75,3.462 1.98,4.825 1.038,6.148C3.93,6.219 6.312,5.184 8.226,3.486C10.396,1.561 11.975,-1.191 13.051,-4.155C13.25,-4.7 13.854,-4.983 14.399,-4.785C14.945,-4.585 15.227,-3.982 15.029,-3.436C14.335,-1.525 13.443,0.301 12.347,1.916C14.295,2.741 16.592,2.555 18.729,1.802C21.018,0.997 23.136,-0.468 24.495,-2.175C24.856,-2.63 25.52,-2.706 25.974,-2.343C26.428,-1.982 26.503,-1.319 26.142,-0.865C24.557,1.125 22.097,2.848 19.428,3.788C16.638,4.769 13.631,4.887 11.136,3.676C11.102,3.66 11.07,3.642 11.039,3.624C10.593,4.137 10.121,4.618 9.623,5.06C7.089,7.307 3.875,8.587 -0.093,8.183C-0.231,8.169 -0.361,8.128 -0.477,8.068C-1.478,9.217 -2.63,10.338 -3.958,11.437C-5.251,12.506 -6.436,13.646 -7.793,14.502C-8.779,15.125 -9.852,15.606 -11.1,15.836C-11.165,15.848 -11.23,15.854 -11.294,15.854C-11.352,15.859 -11.412,15.858 -11.472,15.853C-12.05,15.8 -12.477,15.288 -12.424,14.709C-12.372,14.136 -12.323,13.562 -12.281,12.988C-14.593,13.226 -17.005,13.287 -19.409,13.176C-22,13.058 -24.58,12.742 -27.019,12.237C-29.49,11.726 -33.355,10.418 -37.318,8.522C-37.381,8.582 -37.452,8.634 -37.531,8.679C-39.674,9.88 -42.048,10.598 -44.417,10.755C-46.882,10.918 -49.341,10.474 -51.541,9.344C-52.058,9.079 -52.261,8.444 -51.996,7.927C-51.73,7.411 -51.095,7.207 -50.579,7.472C-48.72,8.427 -46.639,8.792 -44.556,8.655C-42.867,8.542 -41.175,8.101 -39.594,7.371C-41.771,6.206 -43.902,4.874 -45.772,3.412C-50.295,-0.129 -53.226,-4.473 -52.145,-9.029C-52.011,-9.594 -51.443,-9.944 -50.878,-9.81C-50.313,-9.675 -49.963,-9.108 -50.097,-8.543C-50.839,-5.418 -49.149,-2.508 -46.435,0.072C-45.806,-2.24 -45.415,-4.877 -45.716,-7.335C-45.947,-9.23 -46.593,-11.016 -47.916,-12.417C-48.314,-12.839 -48.295,-13.506 -47.873,-13.905C-47.45,-14.303 -46.783,-14.284 -46.384,-13.862C-44.749,-12.128 -43.913,-9.934 -43.627,-7.591C-43.25,-4.516 -43.832,-1.182 -44.683,1.589C-44.614,1.644 -44.545,1.699 -44.475,1.753C-38.836,6.167 -30.699,9.327 -26.592,10.176C-26.382,10.22 -26.17,10.262 -25.957,10.302C-25.234,8.795 -25.371,7.104 -25.944,5.529C-26.549,3.872 -27.641,2.335 -28.85,1.224C-29.278,0.832 -29.306,0.166 -28.913,-0.262C-28.52,-0.69 -27.854,-0.718 -27.426,-0.326C-25.69,1.269 -24.169,3.6 -23.602,6.029C-23.24,7.582 -23.262,9.172 -23.821,10.656C-22.341,10.865 -20.829,11.004 -19.313,11.074C-16.893,11.185 -14.465,11.116 -12.148,10.858C-11.987,7.61 -12.03,4.357 -12.432,1.169C-12.468,0.885 -12.507,0.601 -12.549,0.318C-16.524,0.415 -20.025,0.339 -23.093,-0.921C-24.673,-1.57 -26.146,-2.524 -27.509,-3.925C-27.711,-3.84 -27.942,-3.817 -28.171,-3.874C-31.069,-4.595 -34.222,-4.676 -36.454,-5.987C-38.099,-6.954 -39.332,-8.51 -39.709,-11.31C-39.786,-11.886 -39.382,-12.417 -38.807,-12.494C-38.231,-12.571 -37.701,-12.167 -37.623,-11.591C-37.357,-9.617 -36.548,-8.484 -35.388,-7.802C-33.753,-6.841 -31.576,-6.64 -29.407,-6.271C-29.885,-6.964 -30.33,-7.71 -30.603,-8.496C-30.876,-9.283 -30.985,-10.108 -30.834,-10.965C-30.733,-11.537 -30.187,-11.919 -29.615,-11.819C-29.043,-11.718 -28.661,-11.171 -28.762,-10.6C-28.872,-9.971 -28.719,-9.376 -28.466,-8.815C-28.161,-8.135 -27.712,-7.501 -27.282,-6.916C-26.19,-5.427 -25.013,-4.357 -23.741,-3.593C-22.845,-5.16 -22.33,-6.798 -22.204,-8.463C-22.062,-10.341 -22.415,-12.251 -23.26,-14.128C-23.498,-14.658 -23.261,-15.281 -22.731,-15.52C-22.202,-15.758 -21.578,-15.521 -21.34,-14.992C-20.344,-12.777 -19.937,-10.521 -20.105,-8.305C-20.25,-6.387 -20.826,-4.498 -21.833,-2.69C-19.208,-1.739 -16.243,-1.701 -12.917,-1.779C-13.602,-5.124 -14.754,-8.371 -16.574,-11.434C-18.057,-13.93 -20.271,-16.464 -22.648,-18.983C-28.504,-17.607 -34.145,-18.933 -38.485,-22.096C-38.912,-22.407 -39.327,-22.736 -39.728,-23.083C-42.184,-23.146 -44.174,-23.453 -45.97,-24.207C-47.848,-24.995 -49.523,-26.266 -51.274,-28.301C-51.652,-28.742 -51.603,-29.407 -51.162,-29.786C-50.722,-30.165 -50.057,-30.115 -49.678,-29.674C-48.18,-27.932 -46.763,-26.822 -45.156,-26.148C-44.173,-25.735 -43.123,-25.485 -41.949,-25.341C-44.396,-28.272 -46.043,-31.988 -46.508,-36.194C-46.572,-36.771 -46.155,-37.292 -45.578,-37.355C-45,-37.419 -44.48,-37.001 -44.416,-36.424C-43.826,-31.084 -41.118,-26.619 -37.246,-23.797C-36.696,-23.396 -36.123,-23.029 -35.529,-22.697C-35.547,-23.538 -35.617,-24.398 -35.736,-25.251C-35.893,-26.376 -36.136,-27.489 -36.465,-28.526C-36.64,-29.081 -36.333,-29.672 -35.779,-29.847C-35.226,-30.023 -34.634,-29.715 -34.458,-29.162C-34.095,-28.015 -33.825,-26.786 -33.652,-25.542C-33.479,-24.303 -33.402,-23.05 -33.422,-21.853C-33.423,-21.804 -33.427,-21.755 -33.435,-21.709C-30.668,-20.627 -27.571,-20.26 -24.372,-20.784C-26.94,-23.444 -29.54,-26.073 -31.494,-28.608C-32.877,-30.404 -33.949,-32.161 -34.519,-33.848C-34.714,-34.426 -34.852,-35.002 -34.948,-35.578C-35.282,-35.526 -35.635,-35.635 -35.882,-35.902C-37.247,-37.372 -39.137,-38.967 -40.227,-40.829C-41.079,-42.285 -41.478,-43.893 -40.981,-45.706C-40.827,-46.265 -40.248,-46.595 -39.688,-46.442C-39.127,-46.288 -38.798,-45.709 -38.951,-45.149C-39.284,-43.936 -38.981,-42.867 -38.411,-41.892C-37.6,-40.506 -36.294,-39.296 -35.154,-38.168C-35.171,-39.515 -35.103,-40.868 -35.206,-42.248C-35.249,-42.827 -34.814,-43.332 -34.235,-43.376C-33.656,-43.418 -33.15,-42.984 -33.107,-42.405C-32.962,-40.468 -33.163,-38.584 -32.975,-36.693C-32.902,-35.971 -32.77,-35.249 -32.524,-34.521C-32.02,-33.028 -31.052,-31.483 -29.827,-29.893C-29.605,-29.605 -29.375,-29.316 -29.138,-29.026C-29.101,-29.17 -29.059,-29.318 -29.011,-29.465C-28.634,-30.635 -27.926,-31.928 -27.249,-33.204C-26.63,-34.37 -26.029,-35.514 -25.862,-36.523C-25.541,-38.466 -25.59,-39.953 -25.82,-41.293C-26.235,-43.712 -27.183,-45.69 -27.66,-48.803C-27.748,-49.377 -27.353,-49.915 -26.779,-50.002C-26.205,-50.09 -25.667,-49.696 -25.58,-49.122C-25.105,-46.024 -24.159,-44.056 -23.746,-41.649C-23.551,-40.513 -23.464,-39.285 -23.582,-37.82C-22.057,-38.515 -20.665,-39.637 -19.603,-41C-18.25,-42.735 -17.427,-44.869 -17.601,-47.03C-17.647,-47.609 -17.215,-48.117 -16.637,-48.164C-16.058,-48.21 -15.55,-47.778 -15.503,-47.199C-15.287,-44.518 -16.265,-41.858 -17.942,-39.706C-19.5,-37.707 -21.658,-36.153 -23.967,-35.42C-24.512,-33.625 -25.874,-31.531 -26.691,-29.646C-27.048,-28.824 -27.317,-28.062 -27.183,-27.411C-27.141,-27.207 -27.162,-27.003 -27.232,-26.821C-23.007,-22.152 -17.585,-17.258 -14.765,-12.509C-14.714,-12.423 -14.663,-12.336 -14.612,-12.25C-14.086,-13.228 -13.515,-14.183 -13,-15.166C-12.678,-15.777 -12.379,-16.399 -12.133,-17.048C-11.715,-18.151 -11.419,-19.252 -11.139,-20.339C-15.31,-21.397 -16.969,-24.015 -17.236,-27.154C-17.614,-31.606 -14.885,-37.323 -12.47,-40.999C-12.15,-41.484 -11.498,-41.619 -11.012,-41.3C-10.527,-40.981 -10.392,-40.329 -10.71,-39.842C-12.9,-36.511 -15.481,-31.367 -15.139,-27.332C-14.942,-25.02 -13.654,-23.166 -10.605,-22.378C-10.379,-23.178 -10.127,-23.967 -9.802,-24.741C-9.339,-25.841 -8.74,-26.911 -7.896,-27.938C-6.2,-30.003 -3.097,-32.337 0,-34.897" style="fill:rgb(29,42,47);"/>
        </g>
    </g>
</svg>
