<?xml version="1.0" encoding="UTF-8" standalone="no"?>
<!DOCTYPE svg PUBLIC "-//W3C//DTD SVG 1.1//EN" "http://www.w3.org/Graphics/SVG/1.1/DTD/svg11.dtd">
<svg width="100%" height="100%" viewBox="0 0 286 249" version="1.1" xmlns="http://www.w3.org/2000/svg" xmlns:xlink="http://www.w3.org/1999/xlink" xml:space="preserve" xmlns:serif="http://www.serif.com/" style="fill-rule:evenodd;clip-rule:evenodd;stroke-linejoin:round;stroke-miterlimit:2;">
    <g transform="matrix(1,0,0,1,-1314,-1406)">
        <g transform="matrix(1.8665,-3.66081,3.95733,2.01768,1550.28,1539.55)">
            <path d="M0,-29.808C0.379,-28.433 0.724,-27.054 0.981,-25.636C0.26,-25.62 -0.467,-25.584 -1.197,-25.54C-0.99,-27.079 -0.57,-28.486 0,-29.808M-10.567,-31.534C-10.047,-33.161 -8.128,-35.651 -7.395,-37.869C-8.364,-33.45 -9.268,-29.013 -8.998,-24.574C-9.669,-24.45 -10.342,-24.346 -11.01,-24.202C-11.428,-26.619 -11.346,-29.097 -10.567,-31.534M17.174,8.458C16.736,6.597 13.799,5.931 13.903,3.991C14.119,0.02 19.926,-2.063 18.512,-6.445C17.271,-10.284 11.538,-9.58 10.617,-13.104C10.263,-14.463 11.923,-15.429 12.88,-15.963C17.336,-18.454 22.666,-25.409 13.762,-25.747L6.182,-25.524C6.533,-26.83 7.035,-28.055 7.773,-29.052C8.972,-30.669 13.278,-32.139 13.25,-34.378C13.211,-37.566 9.438,-35.386 8.406,-34.204C6.333,-31.825 4.987,-28.724 4.245,-25.588C3.983,-25.599 3.722,-25.61 3.458,-25.617C3.336,-26.877 3.172,-28.132 2.855,-29.378C2.545,-30.6 2.092,-31.77 1.666,-32.945C3.158,-35.312 4.99,-37.537 6.719,-39.989C7.948,-41.732 10.859,-45.877 9.804,-48.283C8.417,-51.445 5.698,-46.044 5.406,-45.038C4.405,-41.595 2.544,-38.732 0.778,-35.902C0.666,-36.433 0.576,-36.97 0.544,-37.527C0.52,-37.941 0.243,-43.311 -1.116,-42.151C-2.287,-41.151 -1.89,-37.851 -1.667,-36.565C-1.462,-35.368 -1.187,-34.223 -0.893,-33.097C-2.214,-30.725 -3.243,-28.248 -3.458,-25.367C-4.508,-25.264 -5.561,-25.155 -6.618,-24.999C-7.013,-31.432 -3.81,-38.086 -2.421,-44.149C-1.806,-46.828 -0.212,-51.532 -2.425,-53.888C-3.307,-54.826 -4.539,-53.446 -4.913,-52.75C-5.975,-50.769 -5.488,-48.376 -5.775,-46.223C-6.093,-43.852 -6.603,-41.474 -7.126,-39.09C-7.069,-39.725 -7.16,-40.316 -7.493,-40.826C-9.141,-43.358 -12.017,-36.136 -12.368,-35.191C-12.957,-33.614 -13.281,-31.873 -13.425,-30.085C-13.6,-31.736 -13.737,-33.381 -13.826,-34.972C-13.952,-37.259 -13.799,-39.591 -13.783,-41.88C-13.763,-44.603 -13.768,-47.424 -15.639,-49.609C-16.139,-50.19 -17.69,-51.688 -18.519,-50.756C-19.995,-49.093 -17.264,-44.292 -17.146,-42.231C-16.753,-35.232 -17.746,-28.883 -14.92,-23.233C-15.527,-23.066 -16.122,-22.884 -16.72,-22.702C-18.905,-27.52 -20.038,-33.518 -20.83,-38.515C-21.215,-40.937 -21.827,-45.072 -24.738,-45.808C-27.521,-46.514 -26.114,-41.667 -25.533,-40.718C-24.638,-39.255 -23.273,-38 -22.675,-36.363C-20.843,-31.348 -20.63,-26.534 -18.548,-22.116C-18.756,-22.047 -18.97,-21.987 -19.176,-21.915C-21.589,-26.079 -24.059,-30.682 -27.241,-33.97C-28.615,-35.39 -32.127,-37.456 -33.028,-34.369C-33.56,-32.549 -32.408,-30.676 -31.015,-29.59C-28.9,-27.941 -26.372,-27.162 -24.551,-25.077C-23.439,-23.806 -22.527,-22.41 -21.653,-20.985C-21.987,-20.853 -22.324,-20.726 -22.653,-20.59C-24.04,-22.386 -25.557,-24.228 -27.636,-25.183C-28.633,-25.641 -30.976,-25.145 -30.389,-23.606C-29.713,-21.828 -27.293,-21.871 -25.947,-20.85C-25.505,-20.515 -25.102,-20.12 -24.718,-19.7C-25.688,-19.259 -26.66,-18.816 -27.573,-18.336C-30.131,-16.99 -35.008,-15.295 -36.221,-12.486C-38.51,-7.182 -30.389,-5.801 -28.804,-2.305C-27.868,-0.242 -30.41,1.068 -29.691,2.986C-29.081,4.614 -26.968,4.711 -26.208,6.15C-25.457,7.568 -26.244,9.4 -25.44,10.843C-24.133,13.193 -21.271,13.394 -19.512,15.191C-17.91,16.83 -18.196,19.091 -16.926,20.729C-14.414,23.97 -7.794,24.337 -4.125,24.502C-1.179,24.633 1.749,24.355 4.686,24.192C7.638,24.026 17.679,25.018 17.739,20.044C17.765,17.887 15.567,16.188 15.628,14.239C15.693,12.137 17.709,10.732 17.174,8.458" style="fill:rgb(29,42,47);"/>
        </g>
    </g>
</svg>
