<?xml version="1.0" encoding="UTF-8" standalone="no"?>
<!DOCTYPE svg PUBLIC "-//W3C//DTD SVG 1.1//EN" "http://www.w3.org/Graphics/SVG/1.1/DTD/svg11.dtd">
<svg width="100%" height="100%" viewBox="0 0 377 395" version="1.1" xmlns="http://www.w3.org/2000/svg" xmlns:xlink="http://www.w3.org/1999/xlink" xml:space="preserve" xmlns:serif="http://www.serif.com/" style="fill-rule:evenodd;clip-rule:evenodd;stroke-linejoin:round;stroke-miterlimit:2;">
    <g transform="matrix(1,0,0,1,0,-1282)">
        <g transform="matrix(2.97284,5.15244,-5.15244,2.97284,37.475,1413.73)">
            <path d="M0,-17.723C-0.235,-16.766 -0.542,-15.822 -0.892,-14.899C-0.342,-15.4 0.146,-15.983 0.561,-16.619C0.338,-16.984 0.149,-17.354 0,-17.723M1.88,-14.904C0.961,-13.673 -0.193,-12.646 -1.521,-11.952C-1.326,-9.581 -1.054,-7.219 -0.634,-4.921C-0.487,-5.003 -0.32,-5.05 -0.141,-5.051C0.429,-5.057 0.896,-4.598 0.901,-4.029C0.914,-2.554 1.32,-1.174 2.094,-0.066C2.391,0.358 2.741,0.74 3.143,1.072C3.122,0.973 3.101,0.874 3.082,0.774C2.677,-1.339 2.758,-3.674 2.577,-5.674C2.526,-6.242 2.945,-6.744 3.512,-6.795C4.08,-6.847 4.583,-6.428 4.634,-5.861C4.746,-4.624 4.752,-3.256 4.841,-1.895C4.854,-2.998 4.827,-4.106 4.769,-5.231C4.74,-5.799 5.178,-6.285 5.747,-6.314C6.316,-6.343 6.802,-5.905 6.831,-5.336C6.904,-3.91 6.93,-2.51 6.892,-1.113C6.87,-0.341 6.83,0.43 6.767,1.205C7.086,0.876 7.384,0.514 7.649,0.132C8.32,-0.839 8.788,-1.952 8.803,-3.023C8.804,-3.164 8.834,-3.299 8.888,-3.421C8.839,-5.908 8.902,-8.426 8.936,-10.964C8.903,-10.964 8.87,-10.966 8.837,-10.969C7.178,-11.14 4.96,-12.216 3.132,-13.729C2.686,-14.098 2.265,-14.493 1.88,-14.904M40.052,2.923C40.005,2.999 39.959,3.075 39.916,3.152C39.962,3.076 40.007,3.001 40.052,2.923M1.334,2.221C1.466,2.559 1.605,2.893 1.75,3.225C1.984,3.211 2.221,3.181 2.459,3.137C2.052,2.865 1.677,2.558 1.334,2.221M41.536,-4.048C40.146,-3.458 38.636,-3.162 37.162,-3.184C36.516,-1.286 35.756,0.627 34.87,2.489C34.747,3.054 34.85,3.583 35.061,4.086C35.079,4.128 35.097,4.17 35.116,4.212C37.565,1.646 39.698,-1.111 41.536,-4.048M33.377,5.351C33.116,5.809 32.846,6.262 32.566,6.709C32.915,6.39 33.257,6.068 33.594,5.743C33.518,5.613 33.445,5.483 33.377,5.351M37.206,5.005C36.893,5.343 36.574,5.679 36.25,6.012C36.511,6.359 36.776,6.701 37.023,7.04C37.054,6.962 37.094,6.886 37.145,6.816C37.112,6.212 37.13,5.602 37.206,5.005M9.177,1.545C8.618,2.305 7.956,2.986 7.253,3.533C7.292,3.602 7.329,3.672 7.365,3.741C7.906,4.778 8.225,5.929 8.845,6.924C9.574,8.093 10.439,9.343 11.4,10.566C10.455,8.336 9.851,6.057 9.472,3.738C9.353,3.011 9.256,2.28 9.177,1.545M5.165,4.359C5.117,4.393 5.065,4.424 5.01,4.45C4.228,4.824 3.459,5.066 2.707,5.193C2.858,5.474 3.015,5.752 3.177,6.026C5.122,9.314 7.867,12.128 11.77,14.181C9.957,12.227 8.335,10.01 7.093,8.017C6.516,7.091 6.173,6.045 5.713,5.058C5.612,4.842 5.504,4.629 5.384,4.423C5.309,4.41 5.235,4.387 5.165,4.359M23.952,-1.744C23.368,-0.94 22.656,-0.243 21.848,0.313C20.921,0.949 19.87,1.399 18.739,1.612C18.081,3.812 17.77,6.23 17.717,8.658C17.672,10.722 17.815,12.794 18.099,14.753C20.626,11.296 22.201,6.969 23.208,2.351C23.501,1.006 23.747,-0.363 23.952,-1.744M34.785,7.463C33.26,8.916 31.63,10.305 29.889,11.628C29.245,12.116 28.574,12.564 27.884,12.986C27.479,13.234 27.068,13.472 26.652,13.706C25.88,14.361 25.069,14.968 24.217,15.519C25.705,15.162 27.193,14.691 28.626,14.107C31.516,12.929 34.188,11.293 36.159,9.168C35.981,9.088 35.825,8.956 35.713,8.779C35.439,8.344 35.115,7.908 34.785,7.463M47.791,-23.82C46.717,-25.548 45.797,-27.833 45.556,-30.019C45.309,-32.254 45.771,-34.375 47.29,-35.823C47.702,-36.215 48.355,-36.201 48.749,-35.787C49.142,-35.375 49.127,-34.721 48.714,-34.328C47.654,-33.318 47.436,-31.807 47.608,-30.245C47.744,-29.016 48.13,-27.747 48.639,-26.604C48.79,-28.023 48.914,-29.448 49.143,-30.853C49.322,-31.953 49.564,-33.04 49.923,-34.105C50.104,-34.646 50.69,-34.936 51.23,-34.754C51.771,-34.573 52.062,-33.987 51.88,-33.447C51.558,-32.49 51.342,-31.509 51.181,-30.52C50.935,-29.012 50.808,-27.48 50.642,-25.957C51.019,-26.654 51.386,-27.374 51.728,-28.107C52.412,-29.575 52.997,-31.088 53.351,-32.542C53.486,-33.096 54.044,-33.436 54.598,-33.301C55.152,-33.166 55.492,-32.608 55.357,-32.054C55.046,-30.779 54.577,-29.46 54.015,-28.161C53.428,-26.8 52.74,-25.46 52.036,-24.212C53.165,-24.494 54.136,-25.143 54.955,-25.982C56.288,-27.348 57.228,-29.207 57.784,-30.94C57.958,-31.483 58.54,-31.782 59.083,-31.608C59.625,-31.434 59.925,-30.852 59.75,-30.309C58.965,-27.864 57.494,-25.226 55.392,-23.612C55.055,-23.353 54.702,-23.119 54.333,-22.915C55.125,-22.973 55.913,-23.142 56.676,-23.399C58.598,-24.046 60.361,-25.258 61.632,-26.736C62.004,-27.167 62.657,-27.216 63.089,-26.845C63.52,-26.473 63.569,-25.821 63.198,-25.389C61.694,-23.641 59.608,-22.208 57.335,-21.442C55.208,-20.725 52.92,-20.59 50.782,-21.288C49.68,-16.645 48.158,-12.268 46.174,-8.178C46.157,-8.022 46.104,-7.868 46.014,-7.728C45.94,-7.615 45.865,-7.503 45.787,-7.394C45.146,-6.124 44.46,-4.882 43.727,-3.669C42.871,-2.253 41.951,-0.876 40.965,0.46C40.973,0.468 40.981,0.476 40.989,0.486C41.125,0.641 41.206,0.827 41.233,1.017C41.537,0.813 41.94,0.776 42.287,0.957C42.793,1.219 42.99,1.843 42.727,2.349C42.206,3.35 41.618,4.381 40.959,5.363C40.876,5.487 40.791,5.611 40.705,5.734C40.991,5.586 41.273,5.417 41.546,5.231C42.518,4.575 43.371,3.718 43.831,2.876C44.104,2.375 44.731,2.19 45.231,2.463C45.731,2.735 45.917,3.363 45.644,3.863C45.048,4.958 43.963,6.089 42.703,6.942C42.377,7.162 42.041,7.363 41.698,7.541C41.928,7.534 42.158,7.514 42.385,7.483C43.533,7.323 44.63,6.842 45.279,5.919C45.606,5.453 46.251,5.339 46.717,5.668C47.183,5.995 47.295,6.639 46.968,7.106C45.995,8.491 44.393,9.288 42.671,9.528C41.368,9.711 40.004,9.572 38.836,9.168C36.608,12.187 33.19,14.477 29.405,16.019C25.292,17.696 20.754,18.492 16.924,18.43C16.7,18.427 16.493,18.352 16.326,18.227C16.241,18.236 16.155,18.234 16.068,18.221C15.347,18.112 14.65,17.884 13.971,17.595C13.062,17.207 12.186,16.703 11.325,16.274C6.774,14.006 3.614,10.822 1.4,7.078C1.045,6.478 0.716,5.865 0.409,5.239C0.165,5.207 -0.077,5.165 -0.315,5.112C-1.967,4.747 -3.523,3.873 -4.947,2.681C-5.383,2.315 -5.441,1.664 -5.075,1.226C-4.709,0.79 -4.058,0.732 -3.621,1.098C-2.683,1.883 -1.682,2.514 -0.621,2.882C-2.285,-1.408 -3.078,-6.179 -3.513,-11.014C-3.66,-10.911 -3.836,-10.844 -4.028,-10.829C-6.059,-10.671 -8.363,-11.332 -10.405,-12.497C-12.414,-13.644 -14.161,-15.269 -15.156,-16.999C-15.439,-17.494 -15.269,-18.125 -14.775,-18.41C-14.281,-18.694 -13.649,-18.523 -13.365,-18.029C-12.535,-16.584 -11.058,-15.247 -9.381,-14.29C-8.409,-13.737 -7.367,-13.307 -6.339,-13.072C-7.018,-13.599 -7.606,-14.262 -8.104,-15.014C-9.576,-17.238 -10.248,-20.256 -10.269,-22.531C-10.274,-23.101 -9.816,-23.568 -9.246,-23.573C-8.676,-23.578 -8.209,-23.119 -8.204,-22.55C-8.186,-20.617 -7.634,-18.045 -6.382,-16.154C-5.89,-15.411 -5.289,-14.774 -4.555,-14.355C-4.664,-14.857 -4.748,-15.362 -4.812,-15.869C-5.131,-18.386 -4.951,-20.97 -5.302,-23.488C-5.381,-24.052 -4.987,-24.575 -4.423,-24.653C-3.858,-24.732 -3.336,-24.337 -3.257,-23.773C-2.905,-21.246 -3.084,-18.654 -2.764,-16.128C-2.753,-16.043 -2.742,-15.958 -2.73,-15.873C-2.313,-17.005 -1.971,-18.17 -1.767,-19.348C-1.521,-20.77 -1.479,-22.212 -1.766,-23.64C-1.878,-24.199 -1.516,-24.744 -0.957,-24.856C-0.398,-24.968 0.146,-24.606 0.258,-24.047C0.511,-22.791 0.553,-21.527 0.437,-20.27C0.48,-20.279 0.525,-20.286 0.571,-20.29C1.138,-20.341 1.641,-19.922 1.691,-19.355C1.699,-19.266 1.711,-19.177 1.728,-19.088C2.15,-20.427 2.292,-21.848 2.083,-23.202C1.996,-23.765 2.383,-24.292 2.946,-24.379C3.51,-24.466 4.037,-24.079 4.124,-23.516C4.473,-21.252 4.036,-18.829 2.997,-16.729C3.42,-16.233 3.918,-15.758 4.448,-15.321C5.185,-14.71 5.993,-14.173 6.785,-13.772C6.274,-14.609 5.862,-15.485 5.569,-16.39C4.958,-18.283 4.861,-20.303 5.468,-22.38C5.628,-22.927 6.202,-23.242 6.749,-23.081C7.296,-22.921 7.61,-22.348 7.45,-21.801C6.966,-20.145 7.046,-18.534 7.534,-17.026C7.779,-16.266 8.126,-15.534 8.554,-14.833L9.323,-21.817C9.384,-22.384 9.894,-22.794 10.459,-22.733C11.026,-22.672 11.437,-22.162 11.376,-21.596L10.469,-13.361C11.493,-13.87 12.591,-14.743 13.477,-15.764C14.576,-17.032 15.396,-18.534 15.102,-19.907C14.983,-20.463 15.338,-21.013 15.895,-21.132C16.453,-21.251 17.002,-20.897 17.121,-20.339C17.466,-18.733 16.889,-16.954 15.787,-15.372C15.18,-14.502 14.419,-13.695 13.604,-13.009C13.989,-13.091 14.359,-13.217 14.718,-13.377C16.696,-14.263 18.324,-16.111 19.847,-17.65C20.249,-18.055 20.902,-18.058 21.308,-17.658C21.712,-17.256 21.716,-16.603 21.315,-16.198C19.619,-14.484 17.764,-12.479 15.562,-11.493C14.187,-10.877 12.682,-10.629 11.001,-11.021C10.935,-6.108 10.744,-1.267 11.509,3.405C12.032,6.593 13.003,9.703 14.791,12.699C15.179,13.35 15.558,14.095 16.016,14.766C15.743,12.782 15.607,10.694 15.652,8.614C15.71,5.96 16.062,3.32 16.791,0.922C16.024,0.631 15.352,0.128 14.795,-0.508C13.8,-1.648 13.191,-3.221 13.074,-4.607C13.026,-5.175 13.448,-5.674 14.016,-5.723C14.583,-5.771 15.083,-5.349 15.131,-4.782C15.202,-3.954 15.517,-3.035 16.033,-2.28C16.084,-2.203 16.138,-2.129 16.193,-2.058C16.182,-2.329 16.183,-2.602 16.195,-2.873C16.249,-4.007 16.509,-5.141 16.903,-6.25C17.094,-6.788 17.685,-7.069 18.222,-6.878C18.758,-6.687 19.04,-6.096 18.849,-5.559C18.523,-4.645 18.302,-3.711 18.258,-2.776C18.252,-2.659 18.25,-2.541 18.25,-2.424C18.347,-2.667 18.439,-2.912 18.525,-3.159C18.841,-4.061 19.082,-4.988 19.229,-5.954C19.314,-6.518 19.841,-6.906 20.404,-6.82C20.968,-6.735 21.355,-6.207 21.27,-5.645C21.104,-4.549 20.832,-3.499 20.475,-2.478C20.29,-1.949 20.082,-1.427 19.855,-0.911C20.142,-1.049 20.417,-1.209 20.678,-1.389C21.521,-1.968 22.225,-2.751 22.731,-3.667C23.007,-4.166 23.635,-4.347 24.135,-4.072C24.175,-4.049 24.214,-4.024 24.251,-3.997C24.951,-9.924 25.005,-15.932 25.072,-20.992C23.131,-21.024 21.005,-21.827 19.247,-23.111C17.376,-24.478 15.938,-26.383 15.509,-28.408C15.392,-28.965 15.749,-29.513 16.307,-29.631C16.864,-29.748 17.412,-29.392 17.53,-28.834C17.86,-27.27 19.021,-25.834 20.465,-24.779C21.258,-24.199 22.141,-23.732 23.039,-23.431C22.689,-23.912 22.392,-24.431 22.149,-24.976C21.502,-26.432 21.253,-28.072 21.494,-29.657C21.579,-30.221 22.106,-30.609 22.669,-30.523C23.233,-30.438 23.621,-29.911 23.536,-29.348C23.354,-28.151 23.548,-26.913 24.036,-25.815C24.234,-25.37 24.48,-24.949 24.77,-24.561C24.836,-25.195 24.902,-25.829 24.947,-26.464C25.002,-27.246 25.025,-28.03 24.972,-28.817C24.934,-29.385 25.364,-29.878 25.933,-29.916C26.501,-29.955 26.994,-29.525 27.032,-28.956C27.091,-28.074 27.068,-27.195 27.006,-26.319C26.961,-25.676 26.895,-25.034 26.828,-24.392C27.294,-24.797 27.685,-25.288 28.008,-25.823C28.552,-26.725 28.903,-27.755 29.078,-28.755C29.175,-29.317 29.71,-29.694 30.271,-29.596C30.833,-29.498 31.209,-28.963 31.112,-28.402C30.896,-27.157 30.453,-25.877 29.776,-24.755C29.488,-24.279 29.157,-23.83 28.785,-23.423C29.713,-23.636 30.643,-24.042 31.481,-24.581C32.858,-25.468 33.999,-26.718 34.419,-28.133C34.582,-28.68 35.157,-28.992 35.703,-28.829C36.25,-28.666 36.561,-28.092 36.399,-27.545C35.848,-25.69 34.404,-24.007 32.598,-22.845C30.919,-21.764 28.938,-21.14 27.14,-21.196C27.045,-14.152 26.979,-5.246 25.226,2.791C24.283,7.113 22.85,11.184 20.689,14.608C22.249,13.697 23.879,12.892 25.455,12.012C26.001,11.542 26.525,11.043 27.028,10.521C29.439,8.025 31.37,5.001 32.907,1.813C32.968,1.597 33.047,1.38 33.145,1.158C33.198,1.039 33.271,0.934 33.359,0.846C33.979,-0.522 34.53,-1.912 35.017,-3.299C33.704,-3.757 32.323,-4.354 31.195,-5.212C30.236,-5.942 29.454,-6.856 28.997,-8.011C28.787,-8.54 29.046,-9.141 29.576,-9.351C30.106,-9.561 30.706,-9.301 30.916,-8.771C31.231,-7.976 31.785,-7.358 32.445,-6.855C32.866,-6.535 33.329,-6.261 33.81,-6.021C33.196,-7.067 32.751,-8.263 32.6,-9.462C32.408,-10.984 32.68,-12.504 33.599,-13.772C33.934,-14.233 34.58,-14.335 35.041,-14.001C35.502,-13.667 35.605,-13.021 35.271,-12.559C34.508,-11.506 34.475,-10.182 34.802,-8.933C34.946,-8.386 35.161,-7.852 35.424,-7.354C35.485,-7.75 35.555,-8.148 35.632,-8.543C35.86,-9.704 36.163,-10.848 36.555,-11.901C36.754,-12.435 37.349,-12.707 37.883,-12.508C38.417,-12.309 38.689,-11.714 38.49,-11.18C38.136,-10.229 37.864,-9.195 37.658,-8.146C37.609,-7.896 37.564,-7.645 37.522,-7.394C37.804,-7.78 38.082,-8.171 38.344,-8.569C38.864,-9.361 39.322,-10.18 39.612,-11.062C39.79,-11.603 40.373,-11.899 40.915,-11.721C41.456,-11.543 41.751,-10.959 41.574,-10.418C41.312,-9.618 40.939,-8.858 40.502,-8.125C39.929,-7.161 39.238,-6.245 38.567,-5.34C39.331,-5.453 40.087,-5.67 40.804,-5.981C42.058,-6.526 43.19,-7.366 44.018,-8.472C46.038,-12.511 47.581,-16.845 48.697,-21.449C46.678,-21.744 44.735,-22.973 43.302,-24.656C41.787,-26.435 40.854,-28.705 40.938,-30.823C40.96,-31.392 41.441,-31.836 42.011,-31.813C42.58,-31.79 43.024,-31.31 43.001,-30.741C42.937,-29.106 43.703,-27.369 44.874,-25.994C45.685,-25.042 46.695,-24.256 47.791,-23.82" style="fill:rgb(29,42,47);"/>
        </g>
    </g>
</svg>
