<?xml version="1.0" encoding="UTF-8" standalone="no"?>
<!DOCTYPE svg PUBLIC "-//W3C//DTD SVG 1.1//EN" "http://www.w3.org/Graphics/SVG/1.1/DTD/svg11.dtd">
<svg width="100%" height="100%" viewBox="0 0 302 111" version="1.1" xmlns="http://www.w3.org/2000/svg" xmlns:xlink="http://www.w3.org/1999/xlink" xml:space="preserve" xmlns:serif="http://www.serif.com/" style="fill-rule:evenodd;clip-rule:evenodd;stroke-linejoin:round;stroke-miterlimit:2;">
    <g transform="matrix(1,0,0,1,-132,-465)">
        <g transform="matrix(3.81941,0,0,3.81941,433.687,575.747)">
            <g id="Calque2">
                <path d="M0,-28.996L-78.74,-28.996C-77.667,-25.461 -66.989,-24.493 -65.276,-23.809C-65.005,-23.7 -64.156,-23.314 -64.192,-22.894C-64.202,-22.776 -64.932,-22.701 -64.974,-22.694C-67.127,-22.341 -69.396,-22.656 -71.506,-22.043C-71.762,-21.969 -73.632,-21.281 -73.191,-20.751C-70.285,-17.246 -60.845,-21.184 -58.688,-17.657C-58.684,-17.65 -59.003,-17.565 -59.026,-17.559C-59.932,-17.356 -66.072,-16.601 -65.918,-15.574C-65.901,-15.462 -65.695,-15.35 -65.612,-15.301C-64.197,-14.458 -62.435,-14.547 -60.926,-13.973C-58.805,-13.165 -56.84,-11.767 -54.512,-11.024C-54.406,-10.99 -52.998,-10.455 -53.115,-10.217C-53.19,-10.064 -58.706,-9.975 -58.576,-9.013C-58.312,-7.054 -49.834,-6.951 -47.86,-5.566C-47.8,-5.524 -47.431,-5.265 -47.458,-5.166C-47.571,-4.767 -49.954,-4.877 -49.933,-4.456C-49.932,-4.45 -44.775,-3.52 -44.261,-3.294C-44.211,-3.271 -43.475,-2.847 -43.523,-2.796C-43.605,-2.712 -43.859,-2.709 -43.964,-2.685C-45.09,-2.43 -47.782,-0.415 -40.427,-0.008C-40.289,0 -29.359,-0.467 -28.984,-2.812C-28.799,-3.981 -31.877,-3.76 -32.108,-5.136C-32.145,-5.35 -30.152,-5.892 -30.055,-5.921C-28.24,-6.452 -14.602,-5.402 -14.232,-6.953C-13.753,-8.966 -28.994,-9.508 -22.961,-10.921C-21.045,-11.369 -14.227,-12.391 -14.577,-14.212C-14.712,-14.916 -16.199,-14.77 -16.215,-15.622C-16.23,-16.449 -13.364,-16.703 -13.42,-17.563C-13.422,-17.585 -14.18,-17.534 -14.202,-17.532C-14.902,-17.462 -20.983,-16.486 -20.205,-18.396C-19.318,-20.57 -10.329,-20.127 -8.059,-22.056C-6.81,-23.117 -11.042,-23.293 -11.71,-23.67C-11.753,-23.694 -12.247,-24.062 -12.226,-24.076C-11.06,-24.793 -9.52,-24.755 -8.334,-25.503C-6.365,-26.745 -10.217,-26.797 -9.868,-27.416C-9.357,-28.321 -1.187,-27.691 0,-28.996" style="fill:rgb(184,208,226);"/>
            </g>
        </g>
    </g>
</svg>
